<?xml version="1.0" encoding="UTF-8" standalone="no"?>
<!DOCTYPE svg PUBLIC "-//W3C//DTD SVG 1.1//EN"
 "http://www.w3.org/Graphics/SVG/1.1/DTD/svg11.dtd">
<!-- Generated by graphviz version 2.38.0 (20140413.2041)
 -->
<!-- Title: %3 Pages: 1 -->
<svg width="271pt" height="260pt"
 viewBox="0.00 0.00 270.59 260.00" xmlns="http://www.w3.org/2000/svg" xmlns:xlink="http://www.w3.org/1999/xlink">
<g id="graph0" class="graph" transform="scale(1 1) rotate(0) translate(4 256)">
<title>%3</title>
<polygon fill="white" stroke="none" points="-4,4 -4,-256 266.594,-256 266.594,4 -4,4"/>
<!-- d1 -->
<g id="node1" class="node"><title>d1</title>
<ellipse fill="orangered" stroke="orangered" cx="33.797" cy="-234" rx="27" ry="18"/>
<text text-anchor="middle" x="33.797" y="-230.3" font-family="Times New Roman,serif" font-size="14.00">φ1</text>
</g>
<!-- T -->
<g id="node6" class="node"><title>T</title>
<polygon fill="chartreuse" stroke="chartreuse" points="262.594,-144 155.594,-144 155.594,-108 262.594,-108 262.594,-144"/>
<text text-anchor="middle" x="209.094" y="-122.3" font-family="Times New Roman,serif" font-size="14.00">Ψ: what is that ?</text>
</g>
<!-- d1&#45;&gt;T -->
<g id="edge1" class="edge"><title>d1&#45;&gt;T</title>
<path fill="none" stroke="black" d="M57.2142,-224.593C78.5666,-215.241 111.265,-199.885 137.594,-183 152.375,-173.521 167.662,-161.479 180.207,-150.907"/>
<polygon fill="black" stroke="black" points="182.703,-153.378 188.022,-144.215 178.15,-148.061 182.703,-153.378"/>
<text text-anchor="middle" x="111.594" y="-213.8" font-family="Times New Roman,serif" font-size="14.00">w1=?</text>
</g>
<!-- d2 -->
<g id="node2" class="node"><title>d2</title>
<ellipse fill="cornflowerblue" stroke="cornflowerblue" cx="33.797" cy="-180" rx="27" ry="18"/>
<text text-anchor="middle" x="33.797" y="-176.3" font-family="Times New Roman,serif" font-size="14.00">φ2</text>
</g>
<!-- d2&#45;&gt;T -->
<g id="edge2" class="edge"><title>d2&#45;&gt;T</title>
<path fill="none" stroke="black" d="M58.5298,-172.605C80.947,-165.619 115.554,-154.836 145.834,-145.4"/>
<polygon fill="black" stroke="black" points="146.987,-148.707 155.493,-142.391 144.904,-142.024 146.987,-148.707"/>
<text text-anchor="middle" x="111.594" y="-167.8" font-family="Times New Roman,serif" font-size="14.00">w2=?</text>
</g>
<!-- d3 -->
<g id="node3" class="node"><title>d3</title>
<ellipse fill="violet" stroke="violet" cx="33.797" cy="-126" rx="27" ry="18"/>
<text text-anchor="middle" x="33.797" y="-122.3" font-family="Times New Roman,serif" font-size="14.00">....</text>
</g>
<!-- d3&#45;&gt;T -->
<g id="edge3" class="edge"><title>d3&#45;&gt;T</title>
<path fill="none" stroke="black" d="M61.1171,-126C83.3931,-126 116.23,-126 145.219,-126"/>
<polygon fill="black" stroke="black" points="145.288,-129.5 155.288,-126 145.288,-122.5 145.288,-129.5"/>
<text text-anchor="middle" x="111.594" y="-129.8" font-family="Times New Roman,serif" font-size="14.00">w...=?</text>
</g>
<!-- d4 -->
<g id="node4" class="node"><title>d4</title>
<ellipse fill="lightgrey" stroke="lightgrey" cx="33.797" cy="-72" rx="33.5952" ry="18"/>
<text text-anchor="middle" x="33.797" y="-68.3" font-family="Times New Roman,serif" font-size="14.00">φ(n&#45;1)</text>
</g>
<!-- d4&#45;&gt;T -->
<g id="edge4" class="edge"><title>d4&#45;&gt;T</title>
<path fill="none" stroke="black" d="M63.4135,-80.917C85.6864,-87.8573 117.427,-97.7479 145.507,-106.498"/>
<polygon fill="black" stroke="black" points="144.676,-109.905 155.264,-109.538 146.758,-103.222 144.676,-109.905"/>
<text text-anchor="middle" x="111.594" y="-106.8" font-family="Times New Roman,serif" font-size="14.00">w(n&#45;1)=?</text>
</g>
<!-- d5 -->
<g id="node5" class="node"><title>d5</title>
<ellipse fill="orange" stroke="orange" cx="33.797" cy="-18" rx="27" ry="18"/>
<text text-anchor="middle" x="33.797" y="-14.3" font-family="Times New Roman,serif" font-size="14.00">φ(n)</text>
</g>
<!-- d5&#45;&gt;T -->
<g id="edge5" class="edge"><title>d5&#45;&gt;T</title>
<path fill="none" stroke="black" d="M57.2621,-27.099C78.6492,-36.1784 111.372,-51.1713 137.594,-68 152.694,-77.6906 168.225,-90.1522 180.853,-101.039"/>
<polygon fill="black" stroke="black" points="178.873,-103.958 188.699,-107.921 183.489,-98.6957 178.873,-103.958"/>
<text text-anchor="middle" x="111.594" y="-71.8" font-family="Times New Roman,serif" font-size="14.00">w(n)=?</text>
</g>
</g>
</svg>
