<?xml version="1.0" encoding="UTF-8" standalone="no"?>
<!DOCTYPE svg PUBLIC "-//W3C//DTD SVG 1.1//EN"
 "http://www.w3.org/Graphics/SVG/1.1/DTD/svg11.dtd">
<!-- Generated by graphviz version 2.38.0 (20140413.2041)
 -->
<!-- Title: %3 Pages: 1 -->
<svg width="822pt" height="64pt"
 viewBox="0.00 0.00 822.00 64.38" xmlns="http://www.w3.org/2000/svg" xmlns:xlink="http://www.w3.org/1999/xlink">
<g id="graph0" class="graph" transform="scale(1 1) rotate(0) translate(4 60.3831)">
<title>%3</title>
<polygon fill="white" stroke="none" points="-4,4 -4,-60.3831 818,-60.3831 818,4 -4,4"/>
<!-- 0 -->
<g id="node1" class="node"><title>0</title>
<ellipse fill="lightgrey" stroke="lightgrey" cx="27" cy="-20.3831" rx="27" ry="18"/>
<text text-anchor="middle" x="27" y="-16.6831" font-family="Times New Roman,serif" font-size="14.00">0</text>
</g>
<!-- 0&#45;&gt;0 -->
<g id="edge1" class="edge"><title>0&#45;&gt;0</title>
<path fill="none" stroke="black" d="M19.1448,-37.793C17.6785,-47.471 20.2969,-56.3831 27,-56.3831 31.1895,-56.3831 33.7833,-52.9018 34.7816,-47.9281"/>
<polygon fill="black" stroke="black" points="38.2824,-47.8182 34.8552,-37.793 31.2826,-47.7673 38.2824,-47.8182"/>
</g>
<!-- 1 -->
<g id="node6" class="node"><title>1</title>
<ellipse fill="none" stroke="black" cx="118" cy="-20.3831" rx="27" ry="18"/>
<text text-anchor="middle" x="118" y="-16.6831" font-family="Times New Roman,serif" font-size="14.00">1</text>
</g>
<!-- 0&#45;&gt;1 -->
<g id="edge2" class="edge"><title>0&#45;&gt;1</title>
<path fill="none" stroke="black" d="M52.7915,-14.2597C61.8568,-13.644 72.2895,-13.482 82.0741,-13.7739"/>
<polygon fill="black" stroke="black" points="82.1846,-17.2832 92.3415,-14.2688 82.5216,-10.2913 82.1846,-17.2832"/>
</g>
<!-- P -->
<g id="node2" class="node"><title>P</title>
<ellipse fill="orangered" stroke="orangered" cx="409" cy="-20.3831" rx="27" ry="18"/>
<text text-anchor="middle" x="409" y="-16.6831" font-family="Times New Roman,serif" font-size="14.00">P</text>
</g>
<!-- P&#45;&gt;P -->
<g id="edge12" class="edge"><title>P&#45;&gt;P</title>
<path fill="none" stroke="black" d="M399.786,-37.4204C397.905,-47.241 400.977,-56.3831 409,-56.3831 414.015,-56.3831 417.095,-52.812 418.241,-47.736"/>
<polygon fill="black" stroke="black" points="421.74,-47.4114 418.214,-37.4204 414.74,-47.4294 421.74,-47.4114"/>
</g>
<!-- W -->
<g id="node3" class="node"><title>W</title>
<ellipse fill="cornflowerblue" stroke="cornflowerblue" cx="300" cy="-20.3831" rx="27" ry="18"/>
<text text-anchor="middle" x="300" y="-16.6831" font-family="Times New Roman,serif" font-size="14.00">W</text>
</g>
<!-- P&#45;&gt;W -->
<g id="edge13" class="edge"><title>P&#45;&gt;W</title>
<path fill="none" stroke="black" d="M387.089,-9.28951C379.966,-6.07598 371.823,-2.99991 364,-1.38311 352.978,0.894888 341.11,-1.39412 330.678,-5.07248"/>
<polygon fill="black" stroke="black" points="329.143,-1.9184 321.192,-8.92114 331.774,-8.40491 329.143,-1.9184"/>
<text text-anchor="middle" x="354.5" y="-5.18311" font-family="Times New Roman,serif" font-size="14.00">w&#45;</text>
</g>
<!-- E -->
<g id="node4" class="node"><title>E</title>
<ellipse fill="chartreuse" stroke="chartreuse" cx="514" cy="-20.3831" rx="27" ry="18"/>
<text text-anchor="middle" x="514" y="-16.6831" font-family="Times New Roman,serif" font-size="14.00">E</text>
</g>
<!-- P&#45;&gt;E -->
<g id="edge14" class="edge"><title>P&#45;&gt;E</title>
<path fill="none" stroke="black" d="M436.258,-20.3831C448.486,-20.3831 463.236,-20.3831 476.523,-20.3831"/>
<polygon fill="black" stroke="black" points="476.79,-23.8832 486.79,-20.3831 476.79,-16.8832 476.79,-23.8832"/>
<text text-anchor="middle" x="461.5" y="-24.1831" font-family="Times New Roman,serif" font-size="14.00">e&#45;</text>
</g>
<!-- W&#45;&gt;P -->
<g id="edge11" class="edge"><title>W&#45;&gt;P</title>
<path fill="none" stroke="black" d="M327.175,-20.3831C340.518,-20.3831 356.96,-20.3831 371.523,-20.3831"/>
<polygon fill="black" stroke="black" points="371.724,-23.8832 381.724,-20.3831 371.724,-16.8832 371.724,-23.8832"/>
<text text-anchor="middle" x="354.5" y="-24.1831" font-family="Times New Roman,serif" font-size="14.00">w+</text>
</g>
<!-- W&#45;&gt;W -->
<g id="edge9" class="edge"><title>W&#45;&gt;W</title>
<path fill="none" stroke="black" d="M292.145,-37.793C290.678,-47.471 293.297,-56.3831 300,-56.3831 304.189,-56.3831 306.783,-52.9018 307.782,-47.9281"/>
<polygon fill="black" stroke="black" points="311.282,-47.8182 307.855,-37.793 304.283,-47.7673 311.282,-47.8182"/>
</g>
<!-- ... -->
<g id="node7" class="node"><title>...</title>
<ellipse fill="none" stroke="black" cx="209" cy="-20.3831" rx="27" ry="18"/>
<text text-anchor="middle" x="209" y="-16.6831" font-family="Times New Roman,serif" font-size="14.00">...</text>
</g>
<!-- W&#45;&gt;... -->
<g id="edge10" class="edge"><title>W&#45;&gt;...</title>
<path fill="none" stroke="black" d="M274.341,-26.4974C265.29,-27.1176 254.86,-27.284 245.07,-26.9965"/>
<polygon fill="black" stroke="black" points="244.947,-23.4868 234.791,-26.5065 244.613,-30.4789 244.947,-23.4868"/>
</g>
<!-- E&#45;&gt;P -->
<g id="edge16" class="edge"><title>E&#45;&gt;P</title>
<path fill="none" stroke="black" d="M493.35,-8.66458C482.009,-3.27135 467.384,1.38311 454,-1.38311 449.478,-2.31782 444.848,-3.74027 440.37,-5.39503"/>
<polygon fill="black" stroke="black" points="438.826,-2.24594 430.911,-9.28951 441.491,-8.71881 438.826,-2.24594"/>
<text text-anchor="middle" x="461.5" y="-5.18311" font-family="Times New Roman,serif" font-size="14.00">e+</text>
</g>
<!-- E&#45;&gt;E -->
<g id="edge15" class="edge"><title>E&#45;&gt;E</title>
<path fill="none" stroke="black" d="M506.145,-37.793C504.678,-47.471 507.297,-56.3831 514,-56.3831 518.189,-56.3831 520.783,-52.9018 521.782,-47.9281"/>
<polygon fill="black" stroke="black" points="525.282,-47.8182 521.855,-37.793 518.283,-47.7673 525.282,-47.8182"/>
</g>
<!-- .... -->
<g id="node8" class="node"><title>....</title>
<ellipse fill="none" stroke="black" cx="605" cy="-20.3831" rx="27" ry="18"/>
<text text-anchor="middle" x="605" y="-16.6831" font-family="Times New Roman,serif" font-size="14.00">....</text>
</g>
<!-- E&#45;&gt;.... -->
<g id="edge17" class="edge"><title>E&#45;&gt;....</title>
<path fill="none" stroke="black" d="M539.791,-14.2597C548.857,-13.644 559.29,-13.482 569.074,-13.7739"/>
<polygon fill="black" stroke="black" points="569.185,-17.2832 579.341,-14.2688 569.522,-10.2913 569.185,-17.2832"/>
</g>
<!-- n -->
<g id="node5" class="node"><title>n</title>
<ellipse fill="lightgrey" stroke="lightgrey" cx="787" cy="-20.3831" rx="27" ry="18"/>
<text text-anchor="middle" x="787" y="-16.6831" font-family="Times New Roman,serif" font-size="14.00">n</text>
</g>
<!-- n&#45;&gt;n -->
<g id="edge24" class="edge"><title>n&#45;&gt;n</title>
<path fill="none" stroke="black" d="M779.145,-37.793C777.678,-47.471 780.297,-56.3831 787,-56.3831 791.189,-56.3831 793.783,-52.9018 794.782,-47.9281"/>
<polygon fill="black" stroke="black" points="798.282,-47.8182 794.855,-37.793 791.283,-47.7673 798.282,-47.8182"/>
</g>
<!-- n&#45;1 -->
<g id="node9" class="node"><title>n&#45;1</title>
<ellipse fill="none" stroke="black" cx="696" cy="-20.3831" rx="27" ry="18"/>
<text text-anchor="middle" x="696" y="-16.6831" font-family="Times New Roman,serif" font-size="14.00">n&#45;1</text>
</g>
<!-- n&#45;&gt;n&#45;1 -->
<g id="edge25" class="edge"><title>n&#45;&gt;n&#45;1</title>
<path fill="none" stroke="black" d="M761.341,-26.4974C752.29,-27.1176 741.86,-27.284 732.07,-26.9965"/>
<polygon fill="black" stroke="black" points="731.947,-23.4868 721.791,-26.5065 731.613,-30.4789 731.947,-23.4868"/>
</g>
<!-- 1&#45;&gt;0 -->
<g id="edge4" class="edge"><title>1&#45;&gt;0</title>
<path fill="none" stroke="black" d="M92.3415,-26.4974C83.2896,-27.1176 72.8604,-27.284 63.0696,-26.9965"/>
<polygon fill="black" stroke="black" points="62.9468,-23.4868 52.7915,-26.5065 62.6134,-30.4789 62.9468,-23.4868"/>
</g>
<!-- 1&#45;&gt;1 -->
<g id="edge3" class="edge"><title>1&#45;&gt;1</title>
<path fill="none" stroke="black" d="M110.145,-37.793C108.678,-47.471 111.297,-56.3831 118,-56.3831 122.189,-56.3831 124.783,-52.9018 125.782,-47.9281"/>
<polygon fill="black" stroke="black" points="129.282,-47.8182 125.855,-37.793 122.283,-47.7673 129.282,-47.8182"/>
</g>
<!-- 1&#45;&gt;... -->
<g id="edge5" class="edge"><title>1&#45;&gt;...</title>
<path fill="none" stroke="black" d="M143.791,-14.2597C152.857,-13.644 163.29,-13.482 173.074,-13.7739"/>
<polygon fill="black" stroke="black" points="173.185,-17.2832 183.341,-14.2688 173.522,-10.2913 173.185,-17.2832"/>
</g>
<!-- ...&#45;&gt;W -->
<g id="edge8" class="edge"><title>...&#45;&gt;W</title>
<path fill="none" stroke="black" d="M234.791,-14.2597C243.857,-13.644 254.29,-13.482 264.074,-13.7739"/>
<polygon fill="black" stroke="black" points="264.185,-17.2832 274.341,-14.2688 264.522,-10.2913 264.185,-17.2832"/>
</g>
<!-- ...&#45;&gt;1 -->
<g id="edge7" class="edge"><title>...&#45;&gt;1</title>
<path fill="none" stroke="black" d="M183.341,-26.4974C174.29,-27.1176 163.86,-27.284 154.07,-26.9965"/>
<polygon fill="black" stroke="black" points="153.947,-23.4868 143.791,-26.5065 153.613,-30.4789 153.947,-23.4868"/>
</g>
<!-- ...&#45;&gt;... -->
<g id="edge6" class="edge"><title>...&#45;&gt;...</title>
<path fill="none" stroke="black" d="M201.145,-37.793C199.678,-47.471 202.297,-56.3831 209,-56.3831 213.189,-56.3831 215.783,-52.9018 216.782,-47.9281"/>
<polygon fill="black" stroke="black" points="220.282,-47.8182 216.855,-37.793 213.283,-47.7673 220.282,-47.8182"/>
</g>
<!-- ....&#45;&gt;E -->
<g id="edge20" class="edge"><title>....&#45;&gt;E</title>
<path fill="none" stroke="black" d="M579.341,-26.4974C570.29,-27.1176 559.86,-27.284 550.07,-26.9965"/>
<polygon fill="black" stroke="black" points="549.947,-23.4868 539.791,-26.5065 549.613,-30.4789 549.947,-23.4868"/>
</g>
<!-- ....&#45;&gt;.... -->
<g id="edge18" class="edge"><title>....&#45;&gt;....</title>
<path fill="none" stroke="black" d="M597.145,-37.793C595.678,-47.471 598.297,-56.3831 605,-56.3831 609.189,-56.3831 611.783,-52.9018 612.782,-47.9281"/>
<polygon fill="black" stroke="black" points="616.282,-47.8182 612.855,-37.793 609.283,-47.7673 616.282,-47.8182"/>
</g>
<!-- ....&#45;&gt;n&#45;1 -->
<g id="edge19" class="edge"><title>....&#45;&gt;n&#45;1</title>
<path fill="none" stroke="black" d="M630.791,-14.2597C639.857,-13.644 650.29,-13.482 660.074,-13.7739"/>
<polygon fill="black" stroke="black" points="660.185,-17.2832 670.341,-14.2688 660.522,-10.2913 660.185,-17.2832"/>
</g>
<!-- n&#45;1&#45;&gt;n -->
<g id="edge23" class="edge"><title>n&#45;1&#45;&gt;n</title>
<path fill="none" stroke="black" d="M721.791,-14.2597C730.857,-13.644 741.29,-13.482 751.074,-13.7739"/>
<polygon fill="black" stroke="black" points="751.185,-17.2832 761.341,-14.2688 751.522,-10.2913 751.185,-17.2832"/>
</g>
<!-- n&#45;1&#45;&gt;.... -->
<g id="edge22" class="edge"><title>n&#45;1&#45;&gt;....</title>
<path fill="none" stroke="black" d="M670.341,-26.4974C661.29,-27.1176 650.86,-27.284 641.07,-26.9965"/>
<polygon fill="black" stroke="black" points="640.947,-23.4868 630.791,-26.5065 640.613,-30.4789 640.947,-23.4868"/>
</g>
<!-- n&#45;1&#45;&gt;n&#45;1 -->
<g id="edge21" class="edge"><title>n&#45;1&#45;&gt;n&#45;1</title>
<path fill="none" stroke="black" d="M688.145,-37.793C686.678,-47.471 689.297,-56.3831 696,-56.3831 700.189,-56.3831 702.783,-52.9018 703.782,-47.9281"/>
<polygon fill="black" stroke="black" points="707.282,-47.8182 703.855,-37.793 700.283,-47.7673 707.282,-47.8182"/>
</g>
</g>
</svg>
