<?xml version="1.0" encoding="UTF-8" standalone="no"?>
<!DOCTYPE svg PUBLIC "-//W3C//DTD SVG 1.1//EN"
 "http://www.w3.org/Graphics/SVG/1.1/DTD/svg11.dtd">
<!-- Generated by graphviz version 2.38.0 (20140413.2041)
 -->
<!-- Title: %3 Pages: 1 -->
<svg width="301pt" height="305pt"
 viewBox="0.00 0.00 300.64 305.00" xmlns="http://www.w3.org/2000/svg" xmlns:xlink="http://www.w3.org/1999/xlink">
<g id="graph0" class="graph" transform="scale(1 1) rotate(0) translate(4 301)">
<title>%3</title>
<polygon fill="white" stroke="none" points="-4,4 -4,-301 296.641,-301 296.641,4 -4,4"/>
<!-- A -->
<g id="node1" class="node"><title>A</title>
<ellipse fill="cornflowerblue" stroke="cornflowerblue" cx="192.945" cy="-279" rx="50.8918" ry="18"/>
<text text-anchor="middle" x="192.945" y="-275.3" font-family="Times New Roman,serif" font-size="14.00">A (healthy)</text>
</g>
<!-- A&#45;&gt;A -->
<g id="edge1" class="edge"><title>A&#45;&gt;A</title>
<path fill="none" stroke="black" d="M238.853,-286.836C251.745,-286.493 261.641,-283.881 261.641,-279 261.641,-275.492 256.529,-273.156 248.866,-271.992"/>
<polygon fill="black" stroke="black" points="249.108,-268.5 238.853,-271.164 248.531,-275.476 249.108,-268.5"/>
<text text-anchor="middle" x="277.141" y="-275.3" font-family="Times New Roman,serif" font-size="14.00">0.721</text>
</g>
<!-- B -->
<g id="node2" class="node"><title>B</title>
<ellipse fill="orangered" stroke="orangered" cx="53.9452" cy="-192" rx="53.8905" ry="18"/>
<text text-anchor="middle" x="53.9452" y="-188.3" font-family="Times New Roman,serif" font-size="14.00">B (infected)</text>
</g>
<!-- A&#45;&gt;B -->
<g id="edge2" class="edge"><title>A&#45;&gt;B</title>
<path fill="none" stroke="black" d="M168.415,-262.999C145.925,-249.247 112.425,-228.761 87.4694,-213.5"/>
<polygon fill="black" stroke="black" points="89.0553,-210.368 78.698,-208.137 85.4033,-216.34 89.0553,-210.368"/>
<text text-anchor="middle" x="147.445" y="-231.8" font-family="Times New Roman,serif" font-size="14.00">0.202</text>
</g>
<!-- C -->
<g id="node3" class="node"><title>C</title>
<ellipse fill="orange" stroke="orange" cx="141.945" cy="-105" rx="31.3957" ry="18"/>
<text text-anchor="middle" x="141.945" y="-101.3" font-family="Times New Roman,serif" font-size="14.00">C (ill)</text>
</g>
<!-- A&#45;&gt;C -->
<g id="edge3" class="edge"><title>A&#45;&gt;C</title>
<path fill="none" stroke="black" d="M188.99,-260.943C184.08,-240.238 175.215,-204.327 165.945,-174 161.671,-160.018 156.303,-144.642 151.727,-132.054"/>
<polygon fill="black" stroke="black" points="155,-130.813 148.264,-122.635 148.43,-133.229 155,-130.813"/>
<text text-anchor="middle" x="191.445" y="-188.3" font-family="Times New Roman,serif" font-size="14.00">0.067</text>
</g>
<!-- D -->
<g id="node4" class="node"><title>D</title>
<ellipse fill="chartreuse" stroke="chartreuse" cx="141.945" cy="-18" rx="42.7926" ry="18"/>
<text text-anchor="middle" x="141.945" y="-14.3" font-family="Times New Roman,serif" font-size="14.00">D (dead)</text>
</g>
<!-- A&#45;&gt;D -->
<g id="edge4" class="edge"><title>A&#45;&gt;D</title>
<path fill="none" stroke="black" d="M203.069,-261.232C222.438,-226.806 260.316,-146.403 230.945,-87 220.083,-65.0302 198.343,-48.2105 179.069,-36.7951"/>
<polygon fill="black" stroke="black" points="180.583,-33.6307 170.151,-31.7792 177.151,-39.732 180.583,-33.6307"/>
<text text-anchor="middle" x="257.445" y="-144.8" font-family="Times New Roman,serif" font-size="14.00">0.010</text>
</g>
<!-- B&#45;&gt;B -->
<g id="edge5" class="edge"><title>B&#45;&gt;B</title>
<path fill="none" stroke="black" d="M102.703,-199.817C115.872,-199.404 125.89,-196.799 125.89,-192 125.89,-188.551 120.715,-186.235 112.914,-185.052"/>
<polygon fill="black" stroke="black" points="112.964,-181.543 102.703,-184.183 112.37,-188.518 112.964,-181.543"/>
<text text-anchor="middle" x="141.39" y="-188.3" font-family="Times New Roman,serif" font-size="14.00">0.581</text>
</g>
<!-- B&#45;&gt;C -->
<g id="edge6" class="edge"><title>B&#45;&gt;C</title>
<path fill="none" stroke="black" d="M70.9125,-174.611C84.6075,-161.383 104.007,-142.645 119.073,-128.092"/>
<polygon fill="black" stroke="black" points="121.742,-130.38 126.503,-120.915 116.879,-125.345 121.742,-130.38"/>
<text text-anchor="middle" x="119.445" y="-144.8" font-family="Times New Roman,serif" font-size="14.00">0.407</text>
</g>
<!-- B&#45;&gt;D -->
<g id="edge7" class="edge"><title>B&#45;&gt;D</title>
<path fill="none" stroke="black" d="M53.501,-173.751C53.6527,-152.221 56.2885,-114.846 70.9452,-87 80.7382,-68.3945 97.5468,-51.9492 112.351,-39.8934"/>
<polygon fill="black" stroke="black" points="114.596,-42.5814 120.313,-33.6615 110.281,-37.0693 114.596,-42.5814"/>
<text text-anchor="middle" x="86.4452" y="-101.3" font-family="Times New Roman,serif" font-size="14.00">0.012</text>
</g>
<!-- C&#45;&gt;C -->
<g id="edge8" class="edge"><title>C&#45;&gt;C</title>
<path fill="none" stroke="black" d="M170.257,-112.827C181.612,-113.269 191.142,-110.66 191.142,-105 191.142,-101.197 186.84,-98.7715 180.573,-97.7233"/>
<polygon fill="black" stroke="black" points="180.429,-94.2107 170.257,-97.1731 180.056,-101.201 180.429,-94.2107"/>
<text text-anchor="middle" x="206.642" y="-101.3" font-family="Times New Roman,serif" font-size="14.00">0.750</text>
</g>
<!-- C&#45;&gt;D -->
<g id="edge9" class="edge"><title>C&#45;&gt;D</title>
<path fill="none" stroke="black" d="M141.945,-86.799C141.945,-75.1626 141.945,-59.5479 141.945,-46.2368"/>
<polygon fill="black" stroke="black" points="145.445,-46.1754 141.945,-36.1754 138.445,-46.1755 145.445,-46.1754"/>
<text text-anchor="middle" x="157.445" y="-57.8" font-family="Times New Roman,serif" font-size="14.00">0.250</text>
</g>
<!-- D&#45;&gt;D -->
<g id="edge10" class="edge"><title>D&#45;&gt;D</title>
<path fill="none" stroke="black" d="M180.598,-25.8731C193.007,-25.7923 202.841,-23.168 202.841,-18 202.841,-14.3663 197.979,-11.9901 190.779,-10.8714"/>
<polygon fill="black" stroke="black" points="190.827,-7.36562 180.598,-10.1269 190.316,-14.347 190.827,-7.36562"/>
<text text-anchor="middle" x="218.341" y="-14.3" font-family="Times New Roman,serif" font-size="14.00">1.000</text>
</g>
</g>
</svg>
