<?xml version="1.0" encoding="UTF-8" standalone="no"?>
<!DOCTYPE svg PUBLIC "-//W3C//DTD SVG 1.1//EN"
 "http://www.w3.org/Graphics/SVG/1.1/DTD/svg11.dtd">
<!-- Generated by graphviz version 2.38.0 (20140413.2041)
 -->
<!-- Title: %3 Pages: 1 -->
<svg width="292pt" height="77pt"
 viewBox="0.00 0.00 292.00 77.00" xmlns="http://www.w3.org/2000/svg" xmlns:xlink="http://www.w3.org/1999/xlink">
<g id="graph0" class="graph" transform="scale(1 1) rotate(0) translate(4 73)">
<title>%3</title>
<polygon fill="white" stroke="none" points="-4,4 -4,-73 288,-73 288,4 -4,4"/>
<!-- P -->
<g id="node1" class="node"><title>P</title>
<ellipse fill="orangered" stroke="orangered" cx="142" cy="-18" rx="27" ry="18"/>
<text text-anchor="middle" x="142" y="-14.3" font-family="Times New Roman,serif" font-size="14.00">P</text>
</g>
<!-- P&#45;&gt;P -->
<g id="edge1" class="edge"><title>P&#45;&gt;P</title>
<path fill="none" stroke="black" d="M132.077,-35.0373C130.052,-44.8579 133.359,-54 142,-54 147.4,-54 150.718,-50.4289 151.952,-45.3529"/>
<polygon fill="black" stroke="black" points="155.451,-45.0276 151.923,-35.0373 148.451,-45.047 155.451,-45.0276"/>
<text text-anchor="middle" x="142" y="-57.8" font-family="Times New Roman,serif" font-size="14.00">0.5</text>
</g>
<!-- E -->
<g id="node3" class="node"><title>E</title>
<ellipse fill="chartreuse" stroke="chartreuse" cx="257" cy="-18" rx="27" ry="18"/>
<text text-anchor="middle" x="257" y="-14.3" font-family="Times New Roman,serif" font-size="14.00">E</text>
</g>
<!-- P&#45;&gt;E -->
<g id="edge2" class="edge"><title>P&#45;&gt;E</title>
<path fill="none" stroke="black" d="M169.208,-18C184.184,-18 203.19,-18 219.596,-18"/>
<polygon fill="black" stroke="black" points="219.934,-21.5001 229.934,-18 219.934,-14.5001 219.934,-21.5001"/>
<text text-anchor="middle" x="199.5" y="-21.8" font-family="Times New Roman,serif" font-size="14.00">0.25</text>
</g>
<!-- W -->
<g id="node2" class="node"><title>W</title>
<ellipse fill="cornflowerblue" stroke="cornflowerblue" cx="27" cy="-18" rx="27" ry="18"/>
<text text-anchor="middle" x="27" y="-14.3" font-family="Times New Roman,serif" font-size="14.00">W</text>
</g>
<!-- W&#45;&gt;P -->
<g id="edge3" class="edge"><title>W&#45;&gt;P</title>
<path fill="none" stroke="black" d="M54.2085,-18C69.1836,-18 88.1896,-18 104.596,-18"/>
<polygon fill="black" stroke="black" points="114.934,-21.5 104.934,-18.0001 114.934,-14.5 114.934,-21.5"/>
<text text-anchor="middle" x="84.5" y="-21.8" font-family="Times New Roman,serif" font-size="14.00">0.25</text>
</g>
</g>
</svg>
